<?xml version="1.0" encoding="iso-8859-1"?>
<!-- Generator: Adobe Illustrator 16.0.0, SVG Export Plug-In . SVG Version: 6.00 Build 0)  -->
<!DOCTYPE svg PUBLIC "-//W3C//DTD SVG 1.1//EN" "http://www.w3.org/Graphics/SVG/1.1/DTD/svg11.dtd">
<svg version="1.1" id="Capa_1" xmlns="http://www.w3.org/2000/svg" xmlns:xlink="http://www.w3.org/1999/xlink" x="0px" y="0px"
	 width="32.131px" height="32.13px" viewBox="0 0 32.131 32.13" style="enable-background:new 0 0 32.131 32.13;"
	 xml:space="preserve">
<g>
	<g>
		<path d="M18.155,10.224c-0.212-0.122-0.418-0.139-0.616-0.05c-0.308,0.141-0.612,0.474-0.916,1
			c-0.305,0.526-0.44,0.958-0.408,1.294c0.02,0.221,0.136,0.393,0.348,0.515c0.213,0.123,0.418,0.137,0.613,0.04
			c0.309-0.14,0.613-0.473,0.918-0.999c0.302-0.521,0.438-0.953,0.406-1.294C18.483,10.516,18.368,10.347,18.155,10.224z"/>
		<path d="M21.97,19.154c-0.213-0.123-0.417-0.135-0.613-0.039c-0.309,0.14-0.612,0.473-0.917,1
			c-0.305,0.525-0.44,0.957-0.407,1.293c0.018,0.215,0.133,0.383,0.346,0.506s0.417,0.14,0.616,0.05
			c0.308-0.14,0.613-0.474,0.917-0.999c0.305-0.527,0.441-0.96,0.411-1.3C22.299,19.447,22.184,19.277,21.97,19.154z"/>
		<path d="M15.821,3.203L5.677,8.218L5.791,9.99c-0.449,0.073-0.919,0.171-1.397,0.299c-2.068,0.555-3.729,1.471-4.228,2.338
			c-0.156,0.271-0.202,0.533-0.136,0.781c0.067,0.248,0.237,0.453,0.508,0.609c0.866,0.5,2.763,0.465,4.83-0.091
			c0.229-0.061,0.448-0.128,0.665-0.196l0.372,5.781l16.31,9.417l9.417-16.31L15.821,3.203z M5.207,13.32
			c-2.619,0.702-4.444,0.399-4.569-0.075c-0.021-0.081,0.002-0.184,0.072-0.305c0.334-0.578,1.681-1.465,3.848-2.045
			c0.453-0.122,0.875-0.207,1.274-0.274l0.16,2.465C5.743,13.169,5.48,13.249,5.207,13.32z M8.75,11.629
			c-0.213-0.305-0.312-0.672-0.278-1.042c0.177,0.043,0.331,0.094,0.438,0.155c0.121,0.07,0.193,0.146,0.215,0.229
			c0.022,0.083-0.002,0.184-0.072,0.306C8.991,11.382,8.88,11.504,8.75,11.629z M9.241,12.088c-0.014-0.008-0.02-0.021-0.033-0.029
			c0.159-0.157,0.299-0.313,0.389-0.47c0.156-0.271,0.202-0.533,0.136-0.781c-0.067-0.248-0.238-0.452-0.509-0.608
			c-0.155-0.09-0.354-0.157-0.571-0.213c0.007-0.013,0.007-0.028,0.016-0.043c0.434-0.751,1.392-1.008,2.144-0.574
			c0.752,0.435,1.008,1.393,0.574,2.144C10.953,12.266,9.993,12.523,9.241,12.088z M14.751,12.935
			c-0.267-0.434-0.382-0.901-0.345-1.401c0.036-0.5,0.181-0.968,0.434-1.406c0.25-0.433,0.582-0.79,0.997-1.071
			c0.414-0.282,0.876-0.415,1.386-0.401c0.511,0.014,1.03,0.174,1.562,0.48c0.782,0.451,1.27,1.03,1.462,1.736
			c0.192,0.705,0.074,1.43-0.354,2.173c-0.433,0.748-1.002,1.215-1.709,1.4c-0.707,0.187-1.452,0.054-2.234-0.397
			C15.418,13.74,15.019,13.371,14.751,12.935z M13.044,19.124l11.142-6.87l1.347,0.777l-11.157,6.862L13.044,19.124z M22.002,23.381
			c-0.709,0.188-1.456,0.056-2.242-0.397c-0.525-0.305-0.924-0.676-1.191-1.113c-0.269-0.438-0.383-0.904-0.347-1.401
			c0.037-0.495,0.184-0.964,0.436-1.401c0.253-0.438,0.585-0.797,0.996-1.076c0.412-0.28,0.873-0.414,1.387-0.401
			c0.514,0.015,1.034,0.173,1.562,0.476c0.785,0.455,1.273,1.035,1.466,1.744c0.191,0.707,0.072,1.434-0.356,2.176
			C23.279,22.728,22.711,23.193,22.002,23.381z"/>
	</g>
</g>
<g>
</g>
<g>
</g>
<g>
</g>
<g>
</g>
<g>
</g>
<g>
</g>
<g>
</g>
<g>
</g>
<g>
</g>
<g>
</g>
<g>
</g>
<g>
</g>
<g>
</g>
<g>
</g>
<g>
</g>
</svg>
