<svg xmlns="http://www.w3.org/2000/svg" xmlns:xlink="http://www.w3.org/1999/xlink" version="1.1" width="410.23" height="410.23" style="" xml:space="preserve"><rect id="backgroundrect" width="100%" height="100%" x="0" y="0" fill="none" stroke="none"/>
















<g class="currentLayer" style=""><title>Layer 1</title><g id="svg_1" class="" fill="#ffffff" fill-opacity="1">
	<path d="M401.625,364.092l-107.1-107.1c19.125-26.775,30.6-59.288,30.6-93.713c0-89.888-72.675-162.562-162.562-162.562   S0,73.392,0,163.279s72.675,162.562,162.562,162.562c34.425,0,66.938-11.475,93.713-30.6l107.1,107.1   c9.562,9.562,26.775,9.562,38.25,0l0,0C413.1,390.867,413.1,375.566,401.625,364.092z M162.562,287.592   c-68.85,0-124.312-55.463-124.312-124.312c0-68.85,55.462-124.312,124.312-124.312c68.85,0,124.312,55.462,124.312,124.312   C286.875,232.129,231.412,287.592,162.562,287.592z" id="svg_2" fill="#ffffff" fill-opacity="1"/>
</g><g id="svg_3">
</g><g id="svg_4">
</g><g id="svg_5">
</g><g id="svg_6">
</g><g id="svg_7">
</g><g id="svg_8">
</g><g id="svg_9">
</g><g id="svg_10">
</g><g id="svg_11">
</g><g id="svg_12">
</g><g id="svg_13">
</g><g id="svg_14">
</g><g id="svg_15">
</g><g id="svg_16">
</g><g id="svg_17">
</g></g></svg>